<?xml version="1.0" encoding="UTF-8"?><svg id="Layer_1" xmlns="http://www.w3.org/2000/svg" viewBox="0 0 271.38 50.37"><g><path d="M179.13,11.48c0-6.43-4.88-11.1-11.61-11.1h-8.75V22.55h8.75c6.83,0,11.61-4.55,11.61-11.07Zm-11.61,6.32h-3.44V5.12h3.44c3.53,0,6.2,2.72,6.2,6.32s-2.61,6.36-6.2,6.36Z"/><polygon points="197.88 17.87 187.09 17.87 187.09 13.57 194.96 13.57 194.96 8.98 187.09 8.98 187.09 5.06 197.76 5.06 197.76 .38 181.78 .38 181.78 22.55 197.88 22.55 197.88 17.87"/><path d="M216.86,15.83c0-4.06-3.03-5.55-5.67-6.39l-2.89-.95c-1.85-.57-2.93-1.1-2.93-2.11s1.04-1.69,2.77-1.69,3.62,.36,7.14,2.14l.31,.16V1.63l-.12-.06C213.13,.5,210.98,0,208.71,0,203.43,0,200.02,2.65,200.02,6.75c0,3.09,1.83,5.19,5.61,6.42l2.92,.92c1.75,.57,2.9,1.04,2.9,2.24,0,1.64-2.27,1.82-3.25,1.82-1.53,0-3.81-.29-7.93-2.54l-.32-.17v5.41l.11,.06c2.27,1.25,5.38,2.03,8.1,2.03,5.2,0,8.69-2.85,8.69-7.1Z"/><rect x="219.35" y=".38" width="5.32" height="22.17"/><path d="M239.46,22.93c2.94,0,5.6-.65,8.6-2.12l.12-.06V10.38h-11.19v4.36h6.22v2.75c-1.14,.41-2.28,.6-3.5,.6-4.27,0-7.02-2.56-7.02-6.51,0-4.85,3.71-6.58,6.9-6.58,2.17,0,3.8,.4,7.28,1.76l.29,.11V1.4l-.14-.05C244.42,.43,242.12,0,239.78,0,232.31,0,227.28,4.63,227.28,11.51s4.89,11.42,12.18,11.42Z"/><polygon points="266.23 .38 266.23 13.75 256.49 .47 256.42 .38 251.15 .38 251.15 22.55 256.31 22.55 256.31 8.42 266.71 22.55 271.38 22.55 271.38 .38 266.23 .38"/><polygon points="180.87 43.26 176.57 28.2 170.72 28.2 166.48 43.22 162.51 28.2 156.92 28.2 163.17 50.37 169.14 50.37 173.46 35.13 178.22 50.37 183.8 50.37 190.11 28.2 184.55 28.2 180.87 43.26"/><polygon points="197.09 41.39 204.96 41.39 204.96 36.8 197.09 36.8 197.09 32.88 207.75 32.88 207.75 28.2 191.77 28.2 191.77 50.37 207.88 50.37 207.88 45.69 197.09 45.69 197.09 41.39"/><polygon points="216.1 41.39 223.97 41.39 223.97 36.8 216.1 36.8 216.1 32.88 226.76 32.88 226.76 28.2 210.78 28.2 210.78 50.37 226.89 50.37 226.89 45.69 216.1 45.69 216.1 41.39"/><polygon points="249.71 28.6 249.71 28.2 243.4 28.2 235.31 36.55 235.11 36.55 235.11 28.2 229.79 28.2 229.79 50.37 235.11 50.37 235.11 41.67 235.34 41.67 243.53 50.3 243.59 50.37 250.12 50.37 250.12 49.97 239.54 38.89 249.71 28.6"/></g><path d="M62.96,50.37c-13.91,0-25.18-11.28-25.18-25.18S49.05,0,62.96,0V50.37ZM90.35,0C76.44,0,65.16,11.28,65.16,25.18s11.27,25.18,25.18,25.18V0Zm35.57,0h-10.7V50.37h10.7V0Zm-115.22,0H0V50.37H10.7c13.91,0,25.18-11.27,25.18-25.18S24.61,0,10.7,0"/></svg>