<?xml version="1.0" encoding="UTF-8"?><svg id="Layer_1" xmlns="http://www.w3.org/2000/svg" viewBox="0 0 177.17 145.08"><g><path d="M34.37,84.89c0-9.96-7.56-17.18-17.97-17.18H2.86v34.31h13.55c10.58,0,17.97-7.04,17.97-17.13Zm-17.97,9.79h-5.32v-19.63h5.32c5.47,0,9.59,4.21,9.59,9.79s-4.03,9.84-9.59,9.84Z"/><polygon points="63.4 94.78 46.7 94.78 46.7 88.12 58.88 88.12 58.88 81.02 46.7 81.02 46.7 74.95 63.2 74.95 63.2 67.71 38.47 67.71 38.47 102.02 63.4 102.02 63.4 94.78"/><path d="M92.78,91.62c0-6.28-4.69-8.59-8.78-9.89l-4.48-1.48c-2.87-.89-4.53-1.71-4.53-3.27s1.6-2.62,4.29-2.62,5.6,.55,11.05,3.31l.48,.24v-8.27l-.19-.09c-3.62-1.66-6.94-2.44-10.45-2.44-8.17,0-13.45,4.1-13.45,10.45,0,4.78,2.84,8.04,8.68,9.94l4.52,1.42c2.71,.89,4.49,1.61,4.49,3.47,0,2.54-3.51,2.81-5.02,2.81-2.36,0-5.9-.45-12.27-3.94l-.49-.27v8.37l.17,.09c3.52,1.93,8.33,3.14,12.54,3.14,8.04,0,13.45-4.42,13.45-10.99Z"/><rect x="96.63" y="67.71" width="8.23" height="34.31"/><path d="M127.76,102.61c4.56,0,8.66-1.01,13.31-3.28l.19-.09v-16.06h-17.32v6.75h9.63v4.25c-1.76,.63-3.54,.93-5.42,.93-6.6,0-10.87-3.96-10.87-10.08,0-7.51,5.75-10.18,10.67-10.18,3.36,0,5.88,.61,11.28,2.73l.45,.18v-8.48l-.22-.08c-4.03-1.42-7.59-2.08-11.21-2.08-11.57,0-19.34,7.16-19.34,17.82s7.58,17.67,18.85,17.67Z"/><polygon points="169.18 67.71 169.18 88.4 154.11 67.84 154.01 67.71 145.85 67.71 145.85 102.02 153.83 102.02 153.83 80.15 169.94 102.02 177.17 102.02 177.17 67.71 169.18 67.71"/><polygon points="37.06 134.07 30.41 110.77 21.36 110.77 14.79 134.01 8.65 110.77 0 110.77 9.67 145.08 18.91 145.08 25.6 121.5 32.96 145.08 41.61 145.08 51.38 110.77 42.77 110.77 37.06 134.07"/><polygon points="62.17 131.18 74.35 131.18 74.35 124.08 62.17 124.08 62.17 118.01 78.68 118.01 78.68 110.77 53.94 110.77 53.94 145.08 78.87 145.08 78.87 137.84 62.17 137.84 62.17 131.18"/><polygon points="91.59 131.18 103.78 131.18 103.78 124.08 91.59 124.08 91.59 118.01 108.1 118.01 108.1 110.77 83.37 110.77 83.37 145.08 108.3 145.08 108.3 137.84 91.59 137.84 91.59 131.18"/><polygon points="143.62 111.38 143.62 110.77 133.86 110.77 121.33 123.69 121.02 123.69 121.02 110.77 112.79 110.77 112.79 145.08 121.02 145.08 121.02 131.62 121.38 131.62 134.06 144.98 134.15 145.08 144.26 145.08 144.26 144.47 127.88 127.31 143.62 111.38"/></g><path d="M66.23,50.37c-13.91,0-25.18-11.28-25.18-25.18S52.32,0,66.23,0V50.37ZM93.62,0C79.71,0,68.43,11.28,68.43,25.18s11.27,25.18,25.18,25.18V0Zm35.57,0h-10.7V50.37h10.7V0Zm-115.22,0H3.27V50.37H13.97c13.91,0,25.18-11.27,25.18-25.18S27.88,0,13.97,0"/></svg>