<?xml version="1.0" encoding="UTF-8"?><svg id="Layer_1" xmlns="http://www.w3.org/2000/svg" viewBox="0 0 170.24 60.73"><defs><style>.cls-1{fill:#1d1d1b;}</style></defs><g><path d="M5.93,5.86H2.44v3.18H.94V.29H6.83V1.62H2.44v2.92h3.49v1.32Z"/><path d="M12.39,7.77c-.45,.96-1.25,1.44-2.25,1.44-1.44,0-2.26-1.06-2.26-2.48V2.78h1.4v3.74c0,.93,.58,1.39,1.3,1.39s1.38-.46,1.75-1.24V2.78h1.4v6.26h-1.35v-1.28Z"/><path d="M16.85,9.04h-1.4V2.78h1.35v1.28c.45-.96,1.25-1.44,2.25-1.44,1.44,0,2.26,1.06,2.26,2.48v3.95h-1.4v-3.74c0-.93-.57-1.39-1.3-1.39s-1.38,.46-1.75,1.24v3.9Z"/><path d="M25.59,2.63c.97,0,1.72,.45,2.18,1.17V0h1.4V9.04h-1.35v-1.09c-.45,.78-1.23,1.28-2.23,1.28-1.71,0-3-1.43-3-3.31s1.29-3.29,3-3.29Zm.36,5.36c.93,0,1.52-.56,1.83-1.15v-1.86c-.31-.59-.89-1.14-1.83-1.14-1.11,0-1.97,.89-1.97,2.08s.86,2.07,1.97,2.07Z"/><path d="M36.14,8.67c-.59,.31-1.34,.54-2.16,.54-1.92,0-3.49-1.21-3.49-3.28,0-1.94,1.38-3.32,3.28-3.32s2.96,1.32,2.96,3.14c0,.14-.01,.4-.03,.56h-4.8c.15,1.1,1.14,1.69,2.21,1.69,.65,0,1.26-.2,2.02-.59v1.26Zm-4.2-3.41h3.46c-.1-.97-.78-1.48-1.65-1.48s-1.61,.54-1.81,1.48Z"/><path d="M40.69,2.63c.97,0,1.72,.45,2.18,1.17V0h1.4V9.04h-1.35v-1.09c-.45,.78-1.23,1.28-2.23,1.28-1.71,0-3-1.43-3-3.31s1.29-3.29,3-3.29Zm.36,5.36c.93,0,1.52-.56,1.83-1.15v-1.86c-.31-.59-.89-1.14-1.83-1.14-1.11,0-1.97,.89-1.97,2.08s.86,2.07,1.97,2.07Z"/><path d="M54.08,7.96c-.8,.79-1.78,1.24-2.85,1.24-1.67,0-2.89-.96-2.89-2.41,0-1.05,.64-1.76,1.94-2.44-.61-.68-.98-1.24-.98-2,0-1.25,1.03-2.18,2.48-2.18,1.35,0,2.35,.84,2.35,2.12,0,.97-.59,1.75-1.69,2.34l1.6,1.53c.45-.69,.71-1.52,.7-2.41h1.34c.01,1.26-.41,2.41-1.1,3.32l2.08,1.99h-1.85l-1.14-1.09Zm-2.73,.01c.68,0,1.33-.29,1.88-.84l-2.08-1.99c-.87,.4-1.42,.83-1.42,1.52,0,.78,.71,1.32,1.62,1.32Zm.23-4.14c.83-.36,1.29-.86,1.29-1.42,0-.61-.46-1.05-1.1-1.05s-1.1,.43-1.1,1.02c0,.51,.37,.91,.91,1.44Z"/><path d="M63.53,1.49c-.92,0-1.56,.38-1.56,1.05s.63,.95,1.44,1.21l1.15,.38c1.29,.43,2.17,1.06,2.17,2.44,0,1.62-1.34,2.61-3.26,2.61-1.05,0-2.22-.31-3.12-.84v-1.57c1.46,.88,2.41,1.05,3.12,1.05,1.03,0,1.74-.37,1.74-1.11s-.6-.98-1.44-1.26l-1.15-.38c-1.19-.4-2.16-1.07-2.16-2.43,0-1.58,1.39-2.48,3.22-2.48,1.02,0,1.86,.28,2.62,.64v1.53c-1.24-.64-1.98-.83-2.77-.83Z"/><path d="M72.57,7.77c-.45,.96-1.25,1.44-2.25,1.44-1.44,0-2.26-1.06-2.26-2.48V2.78h1.4v3.74c0,.93,.57,1.39,1.3,1.39s1.38-.46,1.75-1.24V2.78h1.4v6.26h-1.35v-1.28Z"/><path d="M75.63,2.78h1.35v1.07c.46-.78,1.23-1.26,2.22-1.26,1.71,0,3,1.43,3,3.31s-1.29,3.29-3,3.29c-.96,0-1.71-.43-2.17-1.16v3.51h-1.4V2.78Zm1.4,2.17v1.92c.31,.57,.89,1.11,1.81,1.11,1.11,0,1.97-.89,1.97-2.08s-.86-2.07-1.97-2.07c-.92,0-1.51,.55-1.81,1.12Z"/><path d="M83.53,2.78h1.35v1.07c.46-.78,1.23-1.26,2.22-1.26,1.71,0,3,1.43,3,3.31s-1.29,3.29-3,3.29c-.96,0-1.71-.43-2.17-1.16v3.51h-1.4V2.78Zm1.4,2.17v1.92c.31,.57,.89,1.11,1.81,1.11,1.11,0,1.97-.89,1.97-2.08s-.86-2.07-1.97-2.07c-.92,0-1.51,.55-1.81,1.12Z"/><path d="M94.43,2.61c1.9,0,3.37,1.38,3.37,3.3s-1.47,3.32-3.37,3.32-3.38-1.38-3.38-3.32,1.47-3.3,3.38-3.3Zm0,5.39c1.15,0,1.98-.87,1.98-2.08s-.83-2.07-1.98-2.07-1.99,.87-1.99,2.07,.83,2.08,1.99,2.08Z"/><path d="M99.13,2.78h1.37v1.2c.5-.96,1.35-1.46,2.55-1.33v1.48c-1.1-.26-2.11,.09-2.52,1.02v3.88h-1.41V2.78Z"/><path d="M108.73,8.81c-.5,.24-.98,.36-1.44,.36-1.39,0-2.21-.8-2.21-2.18V3.96h-1.42l.13-1.18h1.29V1.05h1.41v1.74h2.25v1.18h-2.25v2.9c0,.7,.34,1.1,1.06,1.1,.31,0,.65-.09,1.19-.37v1.23Z"/><path d="M115.19,8.67c-.59,.31-1.34,.54-2.16,.54-1.92,0-3.49-1.21-3.49-3.28,0-1.94,1.38-3.32,3.28-3.32s2.96,1.32,2.96,3.14c0,.14-.01,.4-.03,.56h-4.8c.15,1.1,1.14,1.69,2.21,1.69,.65,0,1.26-.2,2.02-.59v1.26Zm-4.2-3.41h3.46c-.1-.97-.78-1.48-1.65-1.48s-1.61,.54-1.81,1.48Z"/><path d="M119.73,2.63c.97,0,1.72,.45,2.18,1.17V0h1.4V9.04h-1.35v-1.09c-.45,.78-1.23,1.28-2.24,1.28-1.71,0-3-1.43-3-3.31s1.29-3.29,3-3.29Zm.36,5.36c.93,0,1.52-.56,1.83-1.15v-1.86c-.31-.59-.89-1.14-1.83-1.14-1.11,0-1.97,.89-1.97,2.08s.86,2.07,1.97,2.07Z"/><path d="M127.76,0h1.4V3.78c.46-.73,1.21-1.18,2.17-1.18,1.71,0,3,1.43,3,3.31s-1.29,3.29-3,3.29c-1.01,0-1.79-.49-2.23-1.26v1.1h-1.34V0Zm1.4,4.97v1.92c.31,.57,.89,1.11,1.81,1.11,1.11,0,1.97-.89,1.97-2.08s-.86-2.07-1.97-2.07c-.92,0-1.51,.55-1.81,1.12Z"/><path d="M136.37,2.78l1.85,4.73,1.84-4.73h1.55l-3.72,8.76h-1.55l1.1-2.5-2.66-6.26h1.58Z"/></g><g><path class="cls-1" d="M.96,20.31H7.44c4.98,0,8.64,3.34,8.64,8.17s-3.66,8.15-8.64,8.15H.96V20.31Zm3.71,3.24v9.84h2.77c2.79,0,4.86-2.07,4.86-4.93s-2.07-4.91-4.86-4.91h-2.77Z"/><path class="cls-1" d="M28.4,35.97c-1.18,.57-2.6,.95-4.14,.95-3.76,0-6.84-2.22-6.84-6.13,0-3.67,2.62-6.2,6.38-6.2s5.75,2.5,5.75,5.93c0,.29-.02,.74-.05,1.07h-8.55c.31,1.65,1.93,2.48,3.66,2.48,1.23,0,2.34-.38,3.78-1.05v2.93Zm-7.44-6.41h5.32c-.12-1.64-1.25-2.33-2.53-2.33-1.42,0-2.53,.83-2.79,2.33"/><path class="cls-1" d="M30.98,32.61c2.12,1.31,3.78,1.67,4.86,1.67,1.01,0,1.71-.33,1.71-.95s-.58-.91-1.52-1.14l-1.42-.38c-2.19-.57-3.56-1.64-3.56-3.48,0-2.29,2.02-3.74,5.06-3.74,1.2,0,2.72,.26,4.16,.93v2.98c-2.09-1.05-3.49-1.33-4.36-1.33-.96,0-1.52,.33-1.52,.91s.51,.86,1.47,1.12l1.66,.45c2.43,.67,3.49,1.83,3.49,3.5,0,2.5-2.24,3.84-5.01,3.84-1.52,0-3.49-.43-5.03-1.29v-3.08Z"/><path class="cls-1" d="M42.39,21.53c0-1.17,.92-2.05,2.14-2.05s2.17,.88,2.17,2.05-.91,2.1-2.17,2.1-2.14-.91-2.14-2.1m3.9,15.11h-3.49v-11.73h3.49v11.73Z"/><path class="cls-1" d="M53.94,38.76c2.02,0,3.56-1,3.56-3.17v-1.41c-.84,1.24-2.19,2-3.92,2-3.11,0-5.49-2.43-5.49-5.77s2.38-5.79,5.49-5.79c1.76,0,3.13,.79,3.97,2.05v-1.76h3.32v10.53c0,4.53-3.47,6.17-6.65,6.17-1.37,0-2.96-.31-4.62-1.02v-3.1c1.85,1.02,3.32,1.26,4.33,1.26m.58-5.41c1.49,0,2.43-.91,2.87-1.86v-2.12c-.43-.93-1.37-1.83-2.87-1.83-1.73,0-2.96,1.24-2.96,2.91s1.23,2.91,2.96,2.91"/><path class="cls-1" d="M66.65,29.58v7.05h-3.51v-11.73h3.35v2.17c.7-1.48,2.14-2.43,4.07-2.43,2.82,0,4.29,2.1,4.29,4.69v7.29h-3.51v-6.65c0-1.52-.96-2.17-2.05-2.17s-2.12,.69-2.62,1.76"/><path class="cls-1" d="M90.6,34.85c-1.56,1.36-3.37,2.1-5.34,2.1-3.37,0-5.63-1.83-5.63-4.67,0-1.79,.99-3.12,3.44-4.46-1.11-1.19-1.73-2.29-1.73-3.6,0-2.41,2.14-4.19,5.08-4.19,2.74,0,4.77,1.57,4.77,4.15,0,1.74-.94,3.08-2.89,4.19l2.53,2.41c.82-1.19,1.35-2.6,1.35-4.15h3.23c0,2.46-.87,4.62-2.31,6.32l3.87,3.69h-4.5l-1.85-1.79Zm-4.93-.86c.94,0,1.9-.41,2.79-1.17l-3.35-3.19c-1.28,.62-2,1.31-2,2.24,0,1.29,1.06,2.12,2.55,2.12m.51-7.34c1.3-.6,1.93-1.31,1.93-2.17,0-1-.72-1.67-1.71-1.67s-1.71,.67-1.71,1.55c0,.71,.53,1.36,1.42,2.22l.07,.07Z"/><path class="cls-1" d="M113.9,35.61c-1.85,.86-3.49,1.31-5.3,1.31-5.51,0-9-3.81-9-8.44s3.49-8.46,9-8.46c1.81,0,3.44,.41,5.3,1.26v3.77c-2.38-1.29-3.71-1.6-5.06-1.6-3.56,0-5.46,2.38-5.46,5.03s1.9,5,5.46,5c1.35,0,2.7-.33,5.06-1.6v3.72Z"/><path class="cls-1" d="M116.27,24.91h3.4v2.19c.79-1.64,2.31-2.67,4.69-2.45v3.57c-1.76-.45-3.73-.07-4.57,1.48v6.93h-3.51v-11.73Z"/><path class="cls-1" d="M130.84,24.65c1.66,0,2.96,.69,3.8,1.86v-1.55h3.49v11.68h-3.37v-1.76c-.84,1.26-2.19,2.07-3.92,2.07-3.15,0-5.56-2.62-5.56-6.17s2.41-6.13,5.56-6.13m.99,9.27c1.42,0,2.38-.81,2.81-1.67v-2.98c-.43-.86-1.39-1.67-2.81-1.67-1.78,0-3.08,1.38-3.08,3.17s1.3,3.15,3.08,3.15"/><path class="cls-1" d="M142.18,24.91v-.91c0-2.91,1.76-4.6,4.7-4.6,.87,0,1.8,.17,2.67,.48v2.81c-1.01-.31-1.52-.45-2.07-.45-1.18,0-1.81,.69-1.81,2v.67h5.47v-3.36h3.49v3.36h3.92v2.88h-3.92v4.31c0,1.14,.51,1.81,1.73,1.81,.5,0,1.11-.09,2.19-.59v2.98c-1.03,.43-1.97,.57-2.84,.57-2.91,0-4.57-1.67-4.57-4.43v-4.65h-5.47v8.84h-3.49v-8.84h-2.6v-2.88h2.6Z"/><path class="cls-1" d="M160.21,32.61c2.12,1.31,3.78,1.67,4.86,1.67,1.01,0,1.71-.33,1.71-.95s-.58-.91-1.52-1.14l-1.42-.38c-2.19-.57-3.57-1.64-3.57-3.48,0-2.29,2.02-3.74,5.06-3.74,1.2,0,2.72,.26,4.16,.93v2.98c-2.09-1.05-3.49-1.33-4.36-1.33-.96,0-1.51,.33-1.51,.91s.51,.86,1.47,1.12l1.66,.45c2.43,.67,3.49,1.83,3.49,3.5,0,2.5-2.24,3.84-5.01,3.84-1.52,0-3.49-.43-5.03-1.29v-3.08Z"/><path class="cls-1" d="M14.3,59.37c-1.85,.86-3.49,1.31-5.3,1.31-5.51,0-9-3.81-9-8.44s3.49-8.46,9-8.46c1.81,0,3.44,.41,5.3,1.26v3.77c-2.38-1.29-3.71-1.6-5.06-1.6-3.56,0-5.46,2.38-5.46,5.03s1.9,5,5.46,5c1.35,0,2.7-.33,5.06-1.6v3.72Z"/><path class="cls-1" d="M22.36,48.39c3.71,0,6.55,2.53,6.55,6.13s-2.84,6.2-6.55,6.2-6.57-2.55-6.57-6.2,2.84-6.13,6.57-6.13m0,9.32c1.8,0,3.08-1.31,3.08-3.17s-1.28-3.15-3.08-3.15-3.1,1.31-3.1,3.15,1.28,3.17,3.1,3.17"/><path class="cls-1" d="M39.07,58.25c-.7,1.48-2.14,2.43-4.07,2.43-2.82,0-4.28-2.12-4.28-4.69v-7.32h3.52v6.65c0,1.55,.96,2.19,2.04,2.19s2.12-.72,2.62-1.76v-7.08h3.51v11.73h-3.35v-2.15Z"/><path class="cls-1" d="M48.45,53.34v7.05h-3.51v-11.73h3.35v2.17c.7-1.48,2.14-2.43,4.07-2.43,2.82,0,4.29,2.1,4.29,4.69v7.29h-3.51v-6.65c0-1.52-.96-2.17-2.05-2.17s-2.12,.69-2.62,1.76"/><path class="cls-1" d="M65.06,60.68c-3.85,0-6.64-2.41-6.64-6.2s2.74-6.08,6.62-6.08c1.35,0,2.75,.31,3.76,.91v3.24c-1.35-.84-2.46-1.17-3.49-1.17-2.02,0-3.42,1.26-3.42,3.1s1.4,3.22,3.42,3.22c1.04,0,2.09-.36,3.49-1.19v3.17c-1.06,.69-2.43,1-3.73,1"/><path class="cls-1" d="M70.74,45.29c0-1.17,.91-2.05,2.14-2.05s2.17,.88,2.17,2.05-.92,2.1-2.17,2.1-2.14-.91-2.14-2.1m3.9,15.11h-3.49v-11.73h3.49v11.73Z"/><path class="cls-1" d="M83.52,60.14c-.77,.36-1.61,.5-2.43,.5-2.6,0-4.02-1.55-4.02-4.38v-12.82h3.49v12.65c0,1.02,.53,1.52,1.4,1.52,.36,0,.82-.07,1.56-.48v3Z"/><rect class="cls-1" x="90.57" y="44.08" width="3.71" height="16.32"/><path class="cls-1" d="M97.09,48.67h3.4v2.19c.79-1.64,2.31-2.67,4.69-2.45v3.57c-1.75-.45-3.73-.07-4.57,1.48v6.93h-3.51v-11.73Z"/><path class="cls-1" d="M116.99,59.73c-1.18,.57-2.6,.95-4.14,.95-3.76,0-6.84-2.22-6.84-6.13,0-3.67,2.62-6.2,6.38-6.2s5.75,2.5,5.75,5.93c0,.29-.02,.74-.05,1.07h-8.55c.31,1.65,1.93,2.48,3.66,2.48,1.23,0,2.33-.38,3.78-1.05v2.93Zm-7.44-6.41h5.32c-.12-1.64-1.25-2.33-2.53-2.33-1.42,0-2.53,.83-2.79,2.33"/><path class="cls-1" d="M126.42,60.14c-.77,.36-1.61,.5-2.43,.5-2.6,0-4.02-1.55-4.02-4.38v-12.82h3.49v12.65c0,1.02,.53,1.52,1.4,1.52,.36,0,.82-.07,1.56-.48v3Z"/><path class="cls-1" d="M132.8,48.41c1.66,0,2.96,.69,3.8,1.86v-1.55h3.49v11.68h-3.37v-1.76c-.85,1.26-2.19,2.07-3.92,2.07-3.15,0-5.56-2.62-5.56-6.17s2.41-6.13,5.56-6.13m.99,9.27c1.42,0,2.38-.81,2.81-1.67v-2.98c-.43-.86-1.39-1.67-2.81-1.67-1.78,0-3.08,1.38-3.08,3.17s1.3,3.15,3.08,3.15"/><path class="cls-1" d="M146.23,53.34v7.05h-3.51v-11.73h3.34v2.17c.7-1.48,2.15-2.43,4.07-2.43,2.82,0,4.28,2.1,4.28,4.69v7.29h-3.52v-6.65c0-1.52-.96-2.17-2.04-2.17s-2.12,.69-2.62,1.76"/><path class="cls-1" d="M161.66,48.43c1.69,0,2.99,.72,3.83,1.88v-6.89h3.49v16.97h-3.34v-1.81c-.82,1.31-2.19,2.14-3.97,2.14-3.15,0-5.56-2.62-5.56-6.17s2.41-6.13,5.56-6.13m.99,9.27c1.47,0,2.41-.83,2.84-1.72v-2.88c-.43-.88-1.37-1.72-2.84-1.72-1.78,0-3.08,1.38-3.08,3.17s1.3,3.15,3.08,3.15"/></g></svg>