<?xml version="1.0" encoding="utf-8"?>
<!-- Generator: Adobe Illustrator 26.5.0, SVG Export Plug-In . SVG Version: 6.00 Build 0)  -->
<svg version="1.1" id="Layer_1" xmlns="http://www.w3.org/2000/svg" xmlns:xlink="http://www.w3.org/1999/xlink" x="0px" y="0px"
	 viewBox="0 0 765.4 481.9" style="enable-background:new 0 0 765.4 481.9;" xml:space="preserve">
<style type="text/css">
	.st0{fill:#004D71;}
</style>
<g>
	<g>
		<path class="st0" d="M354.3,125.5c0,7.3-1.4,11.3-6.7,11.3c-5.4,0-6.7-4.1-6.7-11.3c0-7.3,1.4-11.3,6.7-11.3
			C353,114.2,354.3,118.2,354.3,125.5z M351.6,126c0-5.4-0.2-9.3-4-9.3c-3.8,0-4,3.8-4,8.2c0,5.4,0.2,9.3,4,9.3
			C351.5,134.2,351.6,130.3,351.6,126z"/>
		<path class="st0" d="M367.8,136.2H358v-21.5h2.6v19.2h7.1V136.2z"/>
		<path class="st0" d="M381.2,136.2h-9.8v-21.5h2.6v19.2h7.1V136.2z"/>
		<path class="st0" d="M389.7,136.8c-3.9,0-6.1-2.6-6.1-7.6h2.8c0,3.6,1,5.2,3.3,5.2c2.1,0,3.1-1.3,3.1-3.4c0-2.4-1.4-3.3-3.6-4.5
			c-2.4-1.3-5.1-2.5-5.1-6.6c0-4.2,2.7-5.7,5.6-5.7c3.4,0,5.6,2,5.6,6.2h-2.7c0-2.5-0.9-3.8-2.9-3.8c-1.7,0-3,0.9-3,3.2
			c0,2.5,1.8,3.4,3.9,4.5c2.5,1.3,4.9,2.6,4.9,6.5C395.7,134.7,393.2,136.8,389.7,136.8z"/>
		<path class="st0" d="M404.9,136.8c-5.6,0-6.5-5.1-6.5-11.5c0-6.3,1-11.1,6.7-11.1c4.3,0,5.8,2.7,5.9,7.3h-2.8
			c0-2.6-0.3-4.8-3.2-4.8c-3.8,0-3.9,4.1-3.9,8.3c0,5.4,0,9.4,4,9.4c2.5,0,3.3-1.7,3.3-5.6h2.8C411.2,133.7,409.4,136.8,404.9,136.8
			z"/>
		<path class="st0" d="M427.3,125.5c0,7.3-1.4,11.3-6.7,11.3c-5.4,0-6.7-4.1-6.7-11.3c0-7.3,1.4-11.3,6.7-11.3
			C425.9,114.2,427.3,118.2,427.3,125.5z M424.6,126c0-5.4-0.2-9.3-4-9.3c-3.8,0-4,3.8-4,8.2c0,5.4,0.2,9.3,4,9.3
			C424.4,134.2,424.6,130.3,424.6,126z"/>
		<path class="st0" d="M433.8,136.2h-2.6v-21.5h2.6V136.2z"/>
		<path class="st0" d="M448.6,136.2h-9.8v-21.5h2.6v19.2h7.1V136.2z"/>
		<path class="st0" d="M470,117h-5.7v19.2h-2.6V117h-5.7v-2.4H470V117z"/>
		<path class="st0" d="M473,136.2v-21.5h9.6v2.4h-7v7.1h6.4v2.4h-6.4v7.3h7.2v2.4H473z"/>
		<path class="st0" d="M489.8,136.2h-2.6v-21.5h2.6V136.2z"/>
		<path class="st0" d="M500.3,136.8c-5.6,0-6.5-5.1-6.5-11.5c0-6.3,1-11.1,6.7-11.1c4.3,0,5.8,2.7,5.9,7.3h-2.8
			c0-2.6-0.3-4.8-3.2-4.8c-3.8,0-3.9,4.1-3.9,8.3c0,5.4,0,9.4,4,9.4c2.5,0,3.3-1.7,3.3-5.6h2.8C506.6,133.7,504.8,136.8,500.3,136.8
			z"/>
		<path class="st0" d="M523.5,136.2h-2.7l-7.9-16.7v16.7h-2.6v-21.5h3.2l7.5,16.3v-16.3h2.6V136.2z"/>
		<path class="st0" d="M528.4,136.2v-21.5h9.6v2.4h-7v7.1h6.4v2.4H531v7.3h7.2v2.4H528.4z"/>
		<path class="st0" d="M554.5,125.5c0,7.3-1.4,11.3-6.7,11.3c-5.4,0-6.7-4.1-6.7-11.3c0-7.3,1.4-11.3,6.7-11.3
			C553.1,114.2,554.5,118.2,554.5,125.5z M551.7,126c0-5.4-0.2-9.3-4-9.3c-3.8,0-4,3.8-4,8.2c0,5.4,0.2,9.3,4,9.3
			C551.6,134.2,551.7,130.3,551.7,126z"/>
		<path class="st0" d="M568,136.2h-9.8v-21.5h2.6v19.2h7.1V136.2z"/>
		<path class="st0" d="M580.8,130.4H574l-1.6,5.8h-2.7l6.4-21.5h2.8l6.4,21.5h-2.8L580.8,130.4z M580.2,128l-2.7-9.8l-2.7,9.8H580.2
			z"/>
		<path class="st0" d="M591.1,136.2h-2.6v-21.5h2.6V136.2z M590.9,112.3h-2.1l3.5-5.4l2.1,1.6L590.9,112.3z"/>
		<path class="st0" d="M608.5,125.5c0,7.3-1.4,11.3-6.7,11.3c-5.4,0-6.7-4.1-6.7-11.3c0-7.3,1.4-11.3,6.7-11.3
			C607.2,114.2,608.5,118.2,608.5,125.5z M605.8,126c0-5.4-0.2-9.3-4-9.3c-3.8,0-4,3.8-4,8.2c0,5.4,0.2,9.3,4,9.3
			C605.6,134.2,605.8,130.3,605.8,126z"/>
		<path class="st0" d="M618.6,136.8c-5.6,0-6.5-5.1-6.5-11.5c0-6.3,1-11.1,6.7-11.1c4.3,0,5.8,2.7,5.9,7.3H622
			c0-2.6-0.3-4.8-3.2-4.8c-3.8,0-3.9,4.1-3.9,8.3c0,5.4,0,9.4,4,9.4c2.5,0,3.3-1.7,3.3-5.6h2.8C625,133.7,623.2,136.8,618.6,136.8z"
			/>
		<path class="st0" d="M641.9,136.2h-2.6v-9.7h-7.9v9.7h-2.6v-21.5h2.6v9.5h7.9v-9.5h2.6V136.2z"/>
		<path class="st0" d="M658.9,117h-5.7v19.2h-2.6V117h-5.7v-2.4h14.1V117z"/>
		<path class="st0" d="M668.6,130.4h-6.8l-1.6,5.8h-2.7l6.4-21.5h2.8l6.4,21.5h-2.8L668.6,130.4z M668,128l-2.7-9.8l-2.7,9.8H668z"
			/>
		<path class="st0" d="M353.6,162.9c0,3.1-1.8,6.2-6,6.2H342v-21.5h6.4c3.4,0,4.6,2.4,4.6,5c0,1.9-0.7,4.1-2.8,5
			C352.7,158.5,353.6,160.7,353.6,162.9z M344.6,156.6h2.7c2.2,0,3-1.7,3-3.5c0-1.5-0.6-3.1-2.5-3.1h-3.2V156.6z M350.9,162.8
			c0-2.1-0.9-4-3.1-4h-3.2v7.8h3C350.1,166.7,350.9,164.8,350.9,162.8z"/>
		<path class="st0" d="M370.5,169.1h-2.6v-9.7h-7.9v9.7h-2.6v-21.5h2.6v9.5h7.9v-9.5h2.6V169.1z"/>
		<path class="st0" d="M384.7,163.3H378l-1.6,5.8h-2.7l6.4-21.5h2.8l6.4,21.5h-2.8L384.7,163.3z M384.1,160.9l-2.7-9.8l-2.7,9.8
			H384.1z"/>
		<path class="st0" d="M395,169.1h-2.6v-21.5h2.6V169.1z"/>
		<path class="st0" d="M409.9,169.1h-9.8v-21.5h2.6v19.2h7.1V169.1z"/>
		<path class="st0" d="M413.4,169.1v-21.5h9.6v2.4h-7v7.1h6.4v2.4h-6.4v7.3h7.2v2.4H413.4z"/>
		<path class="st0" d="M442.7,163.3H436l-1.6,5.8h-2.7l6.4-21.5h2.8l6.4,21.5h-2.8L442.7,163.3z M442.1,160.9l-2.7-9.8l-2.7,9.8
			H442.1z M440.5,145.2h-2.1l3.5-5.4l2.1,1.6L440.5,145.2z"/>
		<path class="st0" d="M459.9,149.9h-5.7v19.2h-2.6v-19.2h-5.7v-2.4h14.1V149.9z"/>
		<path class="st0" d="M476,169.1h-2.6v-9.7h-7.9v9.7h-2.6v-21.5h2.6v9.5h7.9v-9.5h2.6V169.1z"/>
		<path class="st0" d="M490.2,163.3h-6.8l-1.6,5.8h-2.7l6.4-21.5h2.8l6.4,21.5h-2.8L490.2,163.3z M489.6,160.9l-2.7-9.8l-2.7,9.8
			H489.6z"/>
		<path class="st0" d="M508.9,169.6c-5.6,0-6.5-5.1-6.5-11.5c0-6.3,1-11.1,6.7-11.1c4.3,0,5.8,2.7,5.9,7.3h-2.8
			c0-2.6-0.3-4.8-3.2-4.8c-3.8,0-3.9,4.1-3.9,8.3c0,5.4,0,9.4,4,9.4c2.5,0,3.3-1.7,3.3-5.6h2.8C515.2,166.6,513.4,169.6,508.9,169.6
			z"/>
		<path class="st0" d="M528.7,169.1h-9.8v-21.5h2.6v19.2h7.1V169.1z"/>
		<path class="st0" d="M535,169.1h-2.6v-21.5h2.6V169.1z"/>
		<path class="st0" d="M549.3,163.3h-6.8l-1.6,5.8h-2.7l6.4-21.5h2.8l6.4,21.5H551L549.3,163.3z M548.7,160.9l-2.7-9.8l-2.7,9.8
			H548.7z"/>
		<path class="st0" d="M566.5,149.9h-5.7v19.2h-2.6v-19.2h-5.7v-2.4h14.1V149.9z"/>
		<path class="st0" d="M582.6,169.1H580v-9.7H572v9.7h-2.6v-21.5h2.6v9.5h7.9v-9.5h2.6V169.1z"/>
	</g>
	<polygon class="st0" points="657.3,208 657.3,289.7 653.1,283.3 595.5,200 595.3,199.8 588,199.8 579.9,199.8 579.9,208 
		579.9,317.3 595.9,317.3 595.9,227.6 599.6,233.5 657.5,317.1 657.7,317.3 673.3,317.3 673.3,199.8 665.6,199.8 	"/>
	<polygon class="st0" points="457.3,302.2 457.3,199.8 449.5,199.8 441.3,208 441.3,317.3 509.3,317.3 509.3,302.2 	"/>
	<polygon class="st0" points="537,208 537,317.3 553.1,317.3 553.1,199.8 545.2,199.8 	"/>
	<polygon class="st0" points="240.3,203.2 275.7,203.2 275.7,117.3 312.3,117.3 312.3,80.1 203.7,80.1 203.7,117.3 240.3,117.3 	"/>
	<path class="st0" d="M312.3,301.9c0,14.4-5.5,26.8-16,35.9c-9.9,8.6-23.5,13.4-38.4,13.4l-0.9,0c-14.5-0.2-27.8-4.9-37.5-13.4
		c-10.5-9.1-16-21.5-16-35.9l0-77h35.4l0,71.7c0,4.8,1.9,9.3,5.4,12.5c3.4,3.1,8.2,5,13.4,5.1h0.2c5.1-0.2,9.9-2,13.3-5.1
		c3.5-3.2,5.4-7.6,5.4-12.5l0-71.7h35.4L312.3,301.9z"/>
	<path class="st0" d="M399.2,255.6c7.9-5.6,12-13.6,12-23.7c0-9.6-3.4-17.7-10-23.4c-6.5-5.7-15.8-8.7-27-8.7h-39.7v25.1l6.8,6.8
		v85.6h38.1c23.6,0,38.9-13.2,38.9-33.7C418.3,270.5,411.2,260.1,399.2,255.6z M357.4,264.8h22c14.1,0,22.5,6.9,22.5,18.4
		c0,11.9-8.4,19-22.5,19h-22V264.8z M374.9,249.9h-17.5v-12.6l-6.8-6.8v-15.7h23.6c13.2,0,20.7,6.5,20.7,17.9
		C395,243.2,387.1,249.9,374.9,249.9z"/>
	<path class="st0" d="M180.8,225.2l-0.2-0.3c-10.3-16.2-28.2-25.1-50.5-25.1H87.7v117.5h32.4c17.8,0,32.8-5.6,43.4-16.2
		c10.6-10.5,16.1-25.2,16.1-42.6c0-9.8-1.8-18.8-5.4-26.8L180.8,225.2z M159.3,237.7c0.5,1.2,1,2.5,1.4,3.8
		c1.7,5.1,2.5,10.9,2.5,17.1c0,13.4-4,24.5-11.6,32.1c-7.5,7.6-18.5,11.6-31.6,11.6h-16.4v-87.4h26.4c15.8,0,28,5.6,35.5,16.2
		l-6.4,6.4L159.3,237.7z"/>
	<g>
		<g>
			<path class="st0" d="M455.3,350.2h-5.7v19.2H447v-19.2h-5.7v-2.4h14.1V350.2z"/>
			<path class="st0" d="M458.3,369.4v-21.5h9.6v2.4h-7v7.1h6.4v2.4h-6.4v7.3h7.2v2.4H458.3z"/>
			<path class="st0" d="M477.4,369.9c-5.6,0-6.5-5.1-6.5-11.5c0-6.3,1-11.1,6.7-11.1c4.3,0,5.8,2.7,5.9,7.3h-2.8
				c0-2.6-0.3-4.8-3.2-4.8c-3.8,0-3.9,4.1-3.9,8.3c0,5.4,0,9.4,4,9.4c2.5,0,3.3-1.7,3.3-5.6h2.8
				C483.7,366.9,481.9,369.9,477.4,369.9z"/>
			<path class="st0" d="M500.6,369.4H498v-9.7h-7.9v9.7h-2.6v-21.5h2.6v9.5h7.9v-9.5h2.6V369.4z"/>
			<path class="st0" d="M518.7,369.4H516l-7.9-16.7v16.7h-2.6v-21.5h3.2l7.5,16.3v-16.3h2.6V369.4z"/>
			<path class="st0" d="M536,358.6c0,7.3-1.4,11.3-6.7,11.3c-5.4,0-6.7-4.1-6.7-11.3c0-7.3,1.4-11.3,6.7-11.3
				C534.7,347.3,536,351.4,536,358.6z M533.3,359.2c0-5.4-0.2-9.3-4-9.3c-3.8,0-4,3.8-4,8.2c0,5.4,0.2,9.3,4,9.3
				C533.2,367.3,533.3,363.5,533.3,359.2z"/>
			<path class="st0" d="M549.5,369.4h-9.8v-21.5h2.6V367h7.1V369.4z"/>
			<path class="st0" d="M564.8,358.6c0,7.3-1.4,11.3-6.7,11.3c-5.4,0-6.7-4.1-6.7-11.3c0-7.3,1.4-11.3,6.7-11.3
				C563.4,347.3,564.8,351.4,564.8,358.6z M562.1,359.2c0-5.4-0.2-9.3-4-9.3c-3.8,0-4,3.8-4,8.2c0,5.4,0.2,9.3,4,9.3
				C561.9,367.3,562.1,363.5,562.1,359.2z"/>
			<path class="st0" d="M574.1,358.5h6.4v10.9H578v-1.8c-0.8,1.3-1.9,2.4-4.2,2.4c-5.2,0-6-5.5-6-11.5c0-6.3,1-11.2,6.7-11.2
				c4.3,0,5.8,2.7,5.9,7.3h-2.8c0-2.6-0.3-4.8-3.2-4.8c-3.8,0-3.9,4.1-3.9,8.3c0,5.4,0.2,9.4,3.9,9.4c2.5,0,3.5-1.7,3.5-5.6v-0.9
				h-3.9V358.5z"/>
			<path class="st0" d="M587.7,369.4h-2.6v-21.5h2.6V369.4z"/>
			<path class="st0" d="M598.2,369.9c-5.6,0-6.5-5.1-6.5-11.5c0-6.3,1-11.1,6.7-11.1c4.3,0,5.8,2.7,5.9,7.3h-2.8
				c0-2.6-0.3-4.8-3.2-4.8c-3.8,0-3.9,4.1-3.9,8.3c0,5.4,0,9.4,4,9.4c2.5,0,3.3-1.7,3.3-5.6h2.8
				C604.5,366.9,602.7,369.9,598.2,369.9z"/>
			<path class="st0" d="M616.9,363.6h-6.8l-1.6,5.8h-2.7l6.4-21.5h2.8l6.4,21.5h-2.8L616.9,363.6z M616.2,361.2l-2.7-9.8l-2.7,9.8
				H616.2z"/>
			<path class="st0" d="M634.1,369.4h-9.8v-21.5h2.6V367h7.1V369.4z"/>
		</g>
		<g>
			<path class="st0" d="M453.9,379.7v14.9c0,4.3-1.8,7.2-6.3,7.2c-4.5,0-6.4-2.9-6.4-7.2v-14.9h2.6v14.7c0,3,0.9,4.9,3.9,4.9
				c2.7,0,3.6-1.7,3.6-4.6v-15.1H453.9z"/>
			<path class="st0" d="M471.7,401.2H469l-7.9-16.7v16.7h-2.6v-21.5h3.2l7.5,16.3v-16.3h2.6V401.2z"/>
			<path class="st0" d="M479.4,401.2h-2.6v-21.5h2.6V401.2z"/>
			<path class="st0" d="M495.8,379.7l-5.3,21.5h-2.7l-5.3-21.5h2.9l3.8,17.7l3.8-17.7H495.8z"/>
			<path class="st0" d="M498.7,401.2v-21.5h9.6v2.4h-7v7.1h6.4v2.4h-6.4v7.3h7.2v2.4H498.7z"/>
			<path class="st0" d="M524.8,401.2h-2.8l-3.7-9.2h-2.9v9.2h-2.6v-21.5h5.3c4.5,0,6.2,2.7,6.2,5.9c0,2.3-0.9,4.6-3.5,5.6
				L524.8,401.2z M521.5,385.7c0-1.9-0.7-3.6-3.5-3.6h-2.7v7.7h2.3C520.6,389.8,521.5,387.7,521.5,385.7z"/>
			<path class="st0" d="M533.1,401.8c-3.9,0-6.1-2.6-6.1-7.6h2.8c0,3.6,1,5.2,3.3,5.2c2.1,0,3.1-1.3,3.1-3.4c0-2.4-1.4-3.3-3.6-4.5
				c-2.4-1.3-5.1-2.5-5.1-6.6c0-4.2,2.7-5.7,5.6-5.7c3.4,0,5.6,2,5.6,6.2h-2.7c0-2.5-0.9-3.8-2.9-3.8c-1.7,0-3,0.9-3,3.2
				c0,2.5,1.8,3.4,3.9,4.5c2.5,1.3,4.9,2.6,4.9,6.5C539.1,399.7,536.7,401.8,533.1,401.8z"/>
			<path class="st0" d="M545.7,401.2h-2.6v-21.5h2.6V401.2z"/>
			<path class="st0" d="M562.9,382.1h-5.7v19.2h-2.6v-19.2h-5.7v-2.4h14.1V382.1z"/>
			<path class="st0" d="M573.1,401.2h-2.7v-8.4l-5.6-13.1h3l4.1,10.8l4-10.8h2.8l-5.6,13.1V401.2z"/>
			<path class="st0" d="M602.5,390.2c0,5.5-1.4,11.1-8.6,11.1h-4v-21.5h4.1C601.2,379.7,602.5,384.6,602.5,390.2z M599.8,390.3
				c0-4.3-0.5-8.2-5.8-8.2h-1.4v16.8h1.3C599.2,398.9,599.8,394.7,599.8,390.3z"/>
			<path class="st0" d="M618.7,379.7v14.9c0,4.3-1.8,7.2-6.3,7.2s-6.4-2.9-6.4-7.2v-14.9h2.6v14.7c0,3,0.9,4.9,3.9,4.9
				c2.7,0,3.6-1.7,3.6-4.6v-15.1H618.7z"/>
			<path class="st0" d="M635,395c0,3.1-1.8,6.2-6,6.2h-5.7v-21.5h6.4c3.4,0,4.6,2.4,4.6,5c0,1.9-0.7,4.1-2.8,5
				C634.1,390.7,635,392.8,635,395z M626,388.7h2.7c2.2,0,3-1.7,3-3.5c0-1.5-0.6-3.1-2.5-3.1H626V388.7z M632.2,395
				c0-2.1-0.9-4-3.1-4H626v7.8h3C631.5,398.9,632.2,396.9,632.2,395z"/>
			<path class="st0" d="M648.5,401.2h-9.8v-21.5h2.6v19.2h7.1V401.2z"/>
			<path class="st0" d="M654.8,401.2h-2.6v-21.5h2.6V401.2z"/>
			<path class="st0" d="M673.1,401.2h-2.7l-7.9-16.7v16.7h-2.6v-21.5h3.2l7.5,16.3v-16.3h2.6V401.2z"/>
		</g>
	</g>
</g>
</svg>
